<?xml version="1.0"?>
<svg xmlns="http://www.w3.org/2000/svg" viewBox="0 0 64 64" width="512" height="512"><g id="Filled_outline" data-name="Filled outline"><polygon points="52 30 12 30 12 13 19 9 45 9 52 13 52 30" style="fill:#aabece"/><polygon points="40 18 24 18 25 3 39 3 40 18" style="fill:#394d5c"/><circle cx="32" cy="6" r="3" style="fill:#f4f4e6"/><polygon points="12 37 22 39 32 37 42 39 52 37 52 30 12 30 12 37" style="fill:#b5554e"/><rect x="12" y="18" width="40" height="12" style="fill:#2d75bb"/><polygon points="28 34 23 35 18 34 16 30 30 30 28 34" style="fill:#ffd782"/><polygon points="46 34 41 35 36 34 34 30 48 30 46 34" style="fill:#ffd782"/><polygon points="22 39 22 53 28 57 29 61 35 61 36 57 42 53 42 39 32 37 22 39" style="fill:#f4f4e6"/><polygon points="35 61 29 61 28 57 29 50 32 49 35 50 36 57 35 61" style="fill:#394d5c"/><polygon points="36.804 42.98 32 42.02 27.196 42.98 26.804 41.02 32 39.98 37.196 41.02 36.804 42.98" style="fill:#394d5c"/><polygon points="36.804 46.98 32 46.02 27.196 46.98 26.804 45.02 32 43.98 37.196 45.02 36.804 46.98" style="fill:#394d5c"/><polygon points="22 58 18 59 18 38.111 22 39 22 58" style="fill:#dd3e46"/><polygon points="18 59 12 61 12 37 18 38.111 18 59" style="fill:#7d8d9c"/><polygon points="37 24 32 26 27 24 28 13 36 13 37 24" style="fill:#f4f4e6"/><polygon points="12 55 4 55 4 27 12 23 12 55" style="fill:#aabece"/><rect x="8" y="31" width="4" height="4" style="fill:#394d5c"/><rect x="8" y="39" width="4" height="4" style="fill:#394d5c"/><rect x="8" y="47" width="4" height="4" style="fill:#394d5c"/><polygon points="42 58 46 59 46 38.111 42 39 42 58" style="fill:#dd3e46"/><polygon points="46 59 52 61 52 37 46 38.111 46 59" style="fill:#7d8d9c"/><polygon points="52 55 60 55 60 27 52 23 52 55" style="fill:#aabece"/><rect x="52" y="31" width="4" height="4" transform="translate(108 66) rotate(-180)" style="fill:#394d5c"/><rect x="52" y="39" width="4" height="4" transform="translate(108 82) rotate(-180)" style="fill:#394d5c"/><rect x="52" y="47" width="4" height="4" transform="translate(108 98) rotate(-180)" style="fill:#394d5c"/><polygon points="37 24 61 3 36 13 37 24" style="fill:#dd3e46"/><polygon points="27 24 3 3 28 13 27 24" style="fill:#dd3e46"/><polygon points="27 24 32 26 37 24 36.455 18 32 20 27.545 18 27 24" style="fill:#ffd782"/><circle cx="18" cy="24" r="2" style="fill:#f4f4e6"/><circle cx="46" cy="24" r="2" style="fill:#f4f4e6"/><polygon points="26.804 41.02 27.196 42.98 32 42.02 36.804 42.98 37.196 41.02 32 39.98 26.804 41.02"/><polygon points="26.804 45.02 27.196 46.98 32 46.02 36.804 46.98 37.196 45.02 32 43.98 26.804 45.02"/><path d="M60.629,2.071,45.489,8.127,45.271,8H40.335L40,2.934A1,1,0,0,0,39,2H25a1,1,0,0,0-1,.934L23.665,8H18.729l-.218.127L3.371,2.071A1,1,0,0,0,2.342,3.753l9.412,8.236L11,12.42v9.962l-8,4V56h8v5a1,1,0,0,0,1,1,.983.983,0,0,0,.316-.052l5.965-1.988,3.961-.99A1,1,0,0,0,23,58V54.868l4.123,2.749L28.219,62h7.562l1.1-4.383L41,54.868V58a1,1,0,0,0,.758.97l3.961.99,5.965,1.988A.983.983,0,0,0,52,62a1,1,0,0,0,1-1V56h8V26.382l-8-4V12.42l-.754-.431,9.412-8.236a1,1,0,0,0-1.029-1.682ZM34,6a2,2,0,1,1-2-2A2,2,0,0,1,34,6ZM28.556,4A3.959,3.959,0,0,0,28,6a4,4,0,0,0,8,0,3.959,3.959,0,0,0-.556-2h2.62l.46,6.913L35.807,12H28.193l-2.717-1.087L25.936,4Zm6.531,10,.307,3.38L32,18.9,28.606,17.38,28.913,14Zm-6.672,5.486,3.176,1.426a1,1,0,0,0,.818,0l3.176-1.426.351,3.863L32,24.923l-3.936-1.574Zm-1.479-5.835-.754,8.3L8.064,6.1ZM13,13.58l.347-.2L17.481,17H13ZM5,54V27.618l6-3V30H7v6h4v2H7v6h4v2H7v6h4v2ZM17.324,34.885,23,36.02l5.676-1.135L30.618,31h2.764l1.942,3.885L41,36.02l5.676-1.135L48.618,31H51v5.168l-5.182.96-.035.007-3.8.843L32,35.98l-9.988,2-3.8-.843-.035-.007L13,36.168V31h2.382ZM17.618,31H28.382l-1.058,2.115L23,33.98l-4.324-.865Zm18,0H46.382l-1.058,2.115L41,33.98l-4.324-.865ZM53,32h2v2H53Zm0,8h2v2H53ZM11,34H9V32h2Zm0,8H9V40h2Zm0,8H9V48h2Zm2-11.781,4,.8v19.26l-4,1.333Zm8,19-2,.5v-18.3l2,.4ZM29.781,60l-.763-3.053.884-6.194,2.1-.7,2.1.7.884,6.194L34.219,60Zm6.985-4.712L35.9,49.247l-3.9-1.3-3.9,1.3-.864,6.041L23,52.465V39.82l9-1.8,9,1.8V52.465ZM43,39.82l2-.4v18.3l-2-.5Zm8,19.792-4-1.333V39.019l4-.8ZM53,48h2v2H53Zm6-20.382V54H53V52h4V46H53V44h4V38H53V36h4V30H53V24.618ZM51,29H13V19h6.767l6.575,5.753.005,0a.986.986,0,0,0,.282.173l5,2a1,1,0,0,0,.742,0l5-2a.986.986,0,0,0,.282-.173l.005,0L44.233,19H51Zm0-15.42V17H46.519l4.134-3.618ZM37.818,21.955l-.754-8.3L55.936,6.1Z"/><path d="M18,21a3,3,0,1,0,3,3A3,3,0,0,0,18,21Zm0,4a1,1,0,1,1,1-1A1,1,0,0,1,18,25Z"/><path d="M46,21a3,3,0,1,0,3,3A3,3,0,0,0,46,21Zm0,4a1,1,0,1,1,1-1A1,1,0,0,1,46,25Z"/></g></svg>
