<svg height="512pt" viewBox="0 -46 512 511" width="512pt" xmlns="http://www.w3.org/2000/svg"><path d="m91 405.5v-75h-46c-24.8125 0-45-20.1875-45-45v-240c0-24.8125 20.1875-45 45-45h422c24.8125 0 45 20.1875 45 45v240c0 24.8125-20.1875 45-45 45h-236l-116 87c-9.8125 7.363281-24 .386719-24-12zm0 0" fill="#40b4f9"/><path d="m467 .5h-211v330h211c24.808594 0 45-20.191406 45-45v-240c0-24.808594-20.191406-45-45-45zm0 0" fill="#0097f1"/><path d="m406 120.5h-300c-8.285156 0-15-6.714844-15-15s6.714844-15 15-15h300c8.285156 0 15 6.714844 15 15s-6.714844 15-15 15zm0 0" fill="#e8efff"/><path d="m421 105.5c0 8.28125-6.71875 15-15 15h-150v-30h150c8.28125 0 15 6.71875 15 15zm0 0" fill="#ccdfff"/><path d="m286 180.5h-180c-8.285156 0-15-6.714844-15-15s6.714844-15 15-15h180c8.285156 0 15 6.714844 15 15s-6.714844 15-15 15zm0 0" fill="#e8efff"/><path d="m301 165.5c0 8.28125-6.71875 15-15 15h-30v-30h30c8.28125 0 15 6.71875 15 15zm0 0" fill="#ccdfff"/><path d="m406 180.5h-60c-8.285156 0-15-6.714844-15-15s6.714844-15 15-15h60c8.285156 0 15 6.714844 15 15s-6.714844 15-15 15zm0 0" fill="#ccdfff"/><path d="m196 240.5h-90c-8.285156 0-15-6.714844-15-15s6.714844-15 15-15h90c8.285156 0 15 6.714844 15 15s-6.714844 15-15 15zm0 0" fill="#e8efff"/><path d="m406 240.5h-150c-8.285156 0-15-6.714844-15-15s6.714844-15 15-15h150c8.285156 0 15 6.714844 15 15s-6.714844 15-15 15zm0 0" fill="#e8efff"/><path d="m421 225.5c0 8.28125-6.71875 15-15 15h-150v-30h150c8.28125 0 15 6.71875 15 15zm0 0" fill="#ccdfff"/></svg>