<svg id="Layer_1" enable-background="new 0 0 512 512" height="512" viewBox="0 0 512 512" width="512" xmlns="http://www.w3.org/2000/svg"><g><path d="m335.484 246.495h-18.286l-1.124 1.204v10.77c0 9.623-5.676 15.102-14.231 19.513-11.742 6.054-15.27 40.406 6.806 51.611l6.273.947 43.911-16.998v-24.897z" fill="#365e7d"/><path d="m332.235 277.982c6.529-3.366 11.371-7.361 13.303-13.339l-10.053-18.147h-18.286l-1.124 1.204v10.77c0 9.623-5.676 15.102-14.231 19.513-11.742 6.054-15.27 40.406 6.806 51.611l6.273.947 16.702-6.466c-13.578-14.248-9.587-40.836.61-46.093z" fill="#2b4d66"/><path d="m466.156 277.982c-8.578-4.423-14.228-9.903-14.228-19.509v-10.943l-1.793-1.695h-19.181l-22.027 44.53v22.535l45.328 17.642 4.216-1.277c21.619-11.508 19.313-45.288 7.685-51.283z" fill="#365e7d"/><path d="m191.196 212.734h-3.921l-1.768-1.694h-10.431v34.777l3.043 1.597h13.075c9.097 0 16.471-7.764 16.471-17.34.002-9.577-7.372-17.34-16.469-17.34z" fill="#ffcebe"/><path d="m64.776 212.735c-9.083.016-16.443 7.772-16.443 17.339 0 9.577 7.374 17.34 16.471 17.34h13.076l2.126-3.924v-32.45h-12.196z" fill="#ffcebe"/><path d="m192.27 212.791c-.357-.024-.711-.057-1.073-.057h-3.921l-1.768-1.694h-10.431v34.777l3.043 1.597h13.075c.362 0 .717-.033 1.073-.057v-34.566z" fill="#ffb1a0"/><path d="m65.525 230.074c0-8.866 6.324-16.165 14.48-17.201v-1.833h-12.195l-3.034 1.695c-9.083.016-16.443 7.772-16.443 17.339 0 9.577 7.374 17.34 16.471 17.34h13.076l.268-.495c-7.237-1.827-12.623-8.666-12.623-16.845z" fill="#ffb1a0"/><path d="m484.907 339.501c-2.355-.912-33.982-13.161-53.953-20.895l-4.814 2.134h-83.273l-5.949-2.106c-19.887 7.71-53.272 20.653-53.824 20.867-11.583 4.767-27.094 19.767-27.094 42.025v50.144h41.745v80.33h172.51v-80.33h41.745c0-24.3 0-46.327 0-50.144 0-19.169-12.273-35.925-27.093-42.025z" fill="#ff7f87"/><path d="m291.081 363.334c0-15.606 8.266-26.43 16.971-33.509-13.326 5.166-24.639 9.552-24.958 9.676-11.583 4.767-27.094 19.767-27.094 42.025v50.144h35.081c0-28.299 0-55.451 0-68.336z" fill="#ff636e"/><path d="m228.907 339.501c-2.329-.902-33.278-12.888-53.278-20.633l-4.114 1.972h-87.48l-3.71-2.128-53.231 20.79c-11.583 4.766-27.094 19.766-27.094 42.024v50.144h41.745v80.33h172.51v-80.33h41.745c0-24.3 0-46.328 0-50.144 0-19.169-12.273-35.925-27.093-42.025z" fill="#80b4fb"/><path d="m35.049 363.334c0-15.693 8.359-26.549 17.118-33.626l-25.073 9.792c-11.583 4.768-27.094 19.768-27.094 42.026v50.144h35.049c0-28.299 0-55.451 0-68.336z" fill="#61a2f9"/><path d="m451.841 216.135-1.513-1.522h-18.06v31.646l.997 2.06h13.632c9.097 0 16.471-7.374 16.471-16.471-.001-7.373-4.847-13.613-11.527-15.713z" fill="#ffcebe"/><path d="m316.075 215.981.003.016c-6.944 1.936-12.045 8.291-12.045 15.852 0 9.097 7.374 16.471 16.471 16.471h14.232l1.564-1.824v-31.978h-19.058z" fill="#ffcebe"/><path d="m448.401 214.613h-16.134v31.646l.997 2.06h13.632c.508 0 1.009-.031 1.505-.076z" fill="#ffb1a0"/><path d="m320.166 231.848c0-7.561 5.101-13.916 12.045-15.852l-.003-.016 1.167-1.464h-16.134l-1.167 1.464.003.016c-6.944 1.936-12.045 8.291-12.045 15.852 0 9.097 7.374 16.471 16.471 16.471h14.232l.09-.105c-8.243-.902-14.659-7.882-14.659-16.366z" fill="#ffb1a0"/><path d="m322.82 12.161c-16.801-16.554-43.965-16.07-60.643.608l-4.349 4.349c-1.01 1.01-2.647 1.01-3.656 0l-4.349-4.349c-16.678-16.678-43.842-17.162-60.643-.608-16.935 16.685-17.011 43.94-.23 60.721l63.24 63.24c2.106 2.106 5.514 2.106 7.62 0 13.981-13.981 60.811-60.811 63.24-63.24 16.781-16.781 16.705-44.036-.23-60.721z" fill="#ff7f87"/><g><path d="m236.982 72.883c-16.781-16.781-16.704-44.036.23-60.721 1.86-1.833 3.853-3.445 5.94-4.861-16.605-11.065-39.261-9.634-53.972 4.861-16.935 16.685-17.011 43.94-.231 60.721 2.429 2.429 49.26 49.259 63.24 63.24 2.106 2.106 5.514 2.106 7.62 0 4.34-4.34 11.846-11.846 20.206-20.206-18.57-18.572-41.358-41.36-43.033-43.034z" fill="#ff636e"/></g><path d="m41.745 430.639h-41.745v72.332c0 4.986 4.043 9.029 9.029 9.029h32.716z" fill="#ffb1a0"/><path d="m214.255 430.639v81.361h32.716c4.987 0 9.029-4.043 9.029-9.029 0-4.264 0-40.459 0-72.332z" fill="#ffcebe"/><path d="m297.745 430.639h-41.745v72.332c0 4.986 4.043 9.029 9.029 9.029h32.716c0-26.438 0-54.433 0-81.361z" fill="#ffb1a0"/><path d="m470.255 430.639v81.361h32.716c4.987 0 9.029-4.043 9.029-9.029 0-4.264 0-40.459 0-72.332z" fill="#ffcebe"/><path d="m158.903 312.39c-1.92-.742-3.196-2.59-3.201-4.659l-.014-16.466-3.403-3.477h-48.933l-3.083 3.403v16.51c0 2.063-.992 3.279-2.134 4.055l-17.809 6.956c6.235 19.134 24.017 34.098 48.39 34.098 21.842 0 40.407-14.253 46.914-33.942-8.949-3.466-15.708-6.084-16.727-6.478z" fill="#ffcebe"/><path d="m127.977 287.788h-24.626l-3.083 3.403v16.51c0 2.063-.992 3.279-2.134 4.055l-17.809 6.956c6.172 18.94 23.66 33.784 47.652 34.084z" fill="#ffb1a0"/><path d="m414.903 312.39c-1.92-.742-3.196-2.59-3.202-4.659l-.014-16.784-2.202-2.301h-50.65l-2.566 2.4v16.654c0 3.834-3.419 4.757-4.878 5.322-.324.126-6.245 2.421-14.473 5.611 5.906 19.079 23.436 34.119 47.587 34.2 21.671.073 40.151-14.486 46.448-34.227-8.61-3.335-15.057-5.831-16.05-6.216z" fill="#ffcebe"/><path d="m384.002 288.646h-25.166l-2.566 2.4v16.654c0 3.834-3.419 4.757-4.878 5.322-.324.126-6.245 2.421-14.473 5.611 5.865 18.946 23.194 33.9 47.083 34.188z" fill="#ffb1a0"/><path d="m49.471 512v-125.682c0-4.267-3.459-7.726-7.726-7.726s-7.726 3.459-7.726 7.726v125.682z" fill="#61a2f9"/><path d="m221.982 512v-125.682c0-4.267-3.459-7.726-7.726-7.726s-7.726 3.459-7.726 7.726v125.682z" fill="#61a2f9"/><path d="m305.471 512v-125.682c0-4.267-3.459-7.726-7.726-7.726s-7.726 3.459-7.726 7.726v125.682z" fill="#ff636e"/><path d="m477.982 512v-125.682c0-4.267-3.459-7.726-7.726-7.726s-7.726 3.459-7.726 7.726v125.682z" fill="#ff636e"/><path d="m175.629 208.464-4.114-2.747-3.091-13.392h-6.009l-25.068 18.2h-22.203l-1.87 3.019v36.246c0 20.16 12.063 38.976 31.691 46.762 19.281-6.737 33.156-25.097 33.156-46.646v-35.824z" fill="#ffdecf"/><g><path d="m114.014 249.904v-35.432l2.446-3.948h-36.135l-2.446 3.948v35.432c0 25.821 20.232 49.405 50.836 49.405 6.163 0 12.062-1.144 17.508-3.215-19.915-7.299-32.209-26.063-32.209-46.19z" fill="#ffcebe"/></g><path d="m174.911 149.438c-4.72.363-9.052-2.605-9.961-7.252-1.53-7.825-5.405-15.591-20.538-15.591h-52.506c-19.27 0-34.892 15.622-34.892 34.892v38.294c0 8.114 6.578 14.691 14.691 14.691h59.593c13.329 0 24.906-7.478 30.78-18.464.455-.852 1.748-.519 1.748.447 0 9.91 8.108 18.018 18.018 18.018 5.194 0 9.444-4.25 9.444-9.444v-39.961c0-9.415-8.213-16.258-16.377-15.63z" fill="#365e7d"/><g><path d="m86.631 199.781v-38.294c0-19.271 15.622-34.892 34.892-34.892h-29.617c-19.27 0-34.892 15.622-34.892 34.892v38.294c0 8.114 6.578 14.691 14.692 14.691h29.618c-8.115.001-14.693-6.577-14.693-14.691z" fill="#2b4d66"/></g><path d="m428.2 211.212h-21.634l-16.998-21.119h-10.13l-15.757 17.07v43.547c0 20.569 12.645 39.738 33.101 47.057 20.924-5.508 36.482-24.892 36.482-47.472v-34.917z" fill="#ffdecf"/><path d="m364.838 250.772v-44.862l-6.003 6.503h-21.917l-2.182 2.964v35.394c0 25.317 19.79 48.461 49.77 48.562 5.107.017 10.034-.783 14.67-2.267-21.149-6.419-34.338-25.63-34.338-46.294z" fill="#ffcebe"/><path d="m383.105 126.601c-37.33.48-67.03 31.597-67.03 68.931v20.465c1.411-.394 2.892-.62 4.429-.62h14.232 12.88c1.68 0 11.129-.769 10.435-.716 11.957-.916 22.296-9.948 25.145-21.686.091-.375.42-.642.805-.642.386 0 .715.267.806.642 2.847 11.71 13.092 20.638 24.872 21.636 8.556.726 8.672.765 10.216.765h13.369 13.632c1.756 0 3.445.281 5.032.789v-21.645c0-37.811-30.895-68.407-68.823-67.919z" fill="#365e7d"/><g><path d="m346.465 195.532c0-32.433 22.42-60.162 52.779-67.201-5.181-1.188-10.581-1.802-16.139-1.73-37.33.48-67.03 31.597-67.03 68.931v20.465c1.411-.394 2.892-.62 4.429-.62h14.232 11.729z" fill="#2b4d66"/></g></g></svg>