<svg id="Layer_3" enable-background="new 0 0 64 64" height="512" viewBox="0 0 64 64" width="512" xmlns="http://www.w3.org/2000/svg"><g><path d="m20 33 4 4 4-4 12.986 2.164c2.894.483 5.014 2.986 5.014 5.919v20.917h-44v-20.917c0-2.933 2.12-5.436 5.014-5.918z" fill="#e39854"/><path d="m61 62h-28c-.552 0-1-.448-1-1v-20c0-.552.448-1 1-1h28c.552 0 1 .448 1 1v20c0 .552-.448 1-1 1z" fill="#606060"/><path d="m32 57.625c.066.001.13.01.197.01 10.132 0 18.449-7.744 19.373-17.635h-18.57c-.552 0-1 .448-1 1z" fill="#8c8787"/><path d="m62 44c0 3.314-2.686 6-6 6h-18c-3.314 0-6-2.686-6-6v-3c0-.552.448-1 1-1h28c.552 0 1 .448 1 1z" fill="#d5cec2"/><path d="m51.57 40h-18.57c-.552 0-1 .448-1 1v3c0 3.314 2.686 6 6 6h9.629c2.17-2.826 3.591-6.253 3.941-10z" fill="#e7e4dd"/><path d="m62 58v3c0 .552-.448 1-1 1h-28c-.552 0-1-.448-1-1v-3z" fill="#d5cec2"/><path d="m22 35-1 3 2 3h2l2-3-1-3" fill="#d5cec2"/><path d="m31 11-1.6 1.2c-1.558 1.168-3.453 1.8-5.4 1.8s-3.842-.632-5.4-1.8l-1.6-1.2-2 4v6c0 3.532 2.039 6.58 5 8.053v3.947l4 4 4-4v-3.947c2.961-1.474 5-4.522 5-8.053v-6z" fill="#fadfb2"/><path d="m33 16 1.151-2.667c.902-2.092.743-4.491-.43-6.445-.738-1.229-1.831-2.206-3.136-2.8l-2.79-1.271c-1.183-.538-2.467-.817-3.766-.817-1.966 0-3.879.638-5.452 1.817l-1.723 1.301c-1.396.302-2.626 1.168-3.377 2.42-.92 1.533-.993 3.43-.193 5.029l1.716 3.433v-1l2-4 1.6 1.2c1.558 1.168 3.453 1.8 5.4 1.8 1.947 0 3.842-.632 5.4-1.8l1.6-1.2 2 4z" fill="#c18e59"/><path d="m15 16h-2c-1.105 0-2 .895-2 2 0 1.105.895 2 2 2h2" fill="#efbe9a"/><path d="m33 16h2c1.105 0 2 .895 2 2 0 1.105-.895 2-2 2h-2" fill="#efbe9a"/><g><path d="m11 43.999h2v17.999h-2z" fill="#c16b3f"/></g><path d="m25 41 2 5-3 13-3-13 2-5" fill="#e7e4dd"/><path d="m47 54c-1.105 0-2-.895-2-2v-6h4v6c0 1.105-.895 2-2 2z" fill="#f2c351"/><g><path d="m53 39.999-.001-4c0-.552-.448-1-1-1h-9.999c-.552 0-1 .448-1 1v3.999l-2 .001v-4c0-1.654 1.346-3 3-3h9.999c1.654 0 3 1.346 3 3l.001 3.999z" fill="#8c8787"/></g><path d="m49 47.962v-1.962h-4v6c0 .243.05.473.129.689 1.526-1.36 2.834-2.952 3.871-4.727z" fill="#f7d881"/><path d="m61 39h-6v-3c0-1.654-1.346-3-3-3h-10c-.862 0-1.635.371-2.182.955l-10.818-1.803v-2.506c2.984-1.732 5-4.955 5-8.646h1c1.654-.001 2.999-1.347 2.999-3 0-1.654-1.345-3-2.999-3h-.48l.548-1.271c1.027-2.382.844-5.132-.491-7.356-.846-1.409-2.083-2.514-3.579-3.195l-2.791-1.271c-3.292-1.5-7.336-1.062-10.231 1.11l-1.577 1.183.002.003c-1.561.407-2.937 1.411-3.783 2.821-1.102 1.835-1.188 4.075-.23 5.99l.994 1.986h-.382c-1.654 0-3 1.346-3 3 0 1.653 1.345 2.999 3 3h1c0 3.692 2.016 6.915 5 8.647v2.506l-12.151 2.024c-3.39.565-5.849 3.469-5.849 6.905v20.916c0 .553.447 1 1 1h31 .999 27c1.103 0 2-.896 2-2v-19.998c.001-1.104-.896-2-1.999-2zm0 4.999c-.001 2.757-2.243 4.999-5.001 4.999h-6v-2.999c0-.553-.447-1-1-1h-4c-.553 0-1 .447-1 1v2.999h-6c-2.756 0-4.997-2.24-5-4.994v-3.004h28zm-28 4.889c1.272 1.3 3.042 2.11 5 2.11h6v1.002c0 1.653 1.346 2.998 3 2.998s3-1.345 3-2.998v-1.002h6c1.959 0 3.729-.811 5.001-2.111l.001 8.112h-28.002zm13 3.112v-5.001h2v5.001c0 .551-.448.998-1 .998h-.001c-.551 0-.999-.447-.999-.998zm-5-15.805c1.574.323 2.873 1.381 3.53 2.805h-3.53zm12-.195v3h-6.331c-.535-1.711-1.705-3.132-3.238-4h8.569c.551 0 1 .448 1 1zm-17.001-18c0 .551-.448 1-.999 1h-1v-2h1c.551 0 .999.448.999 1zm-21.665-9.947c.76-1.267 2.149-2.053 3.626-2.053 1.568 0 3.023.779 3.893 2.083l.314.471 1.665-1.109-.314-.471c-.902-1.353-2.247-2.302-3.772-2.725 2.264-1.404 5.199-1.63 7.634-.523l2.791 1.271c1.125.513 2.057 1.344 2.692 2.404 1.004 1.674 1.143 3.743.37 5.535l-.068.158-1.27-2.541c-.132-.266-.376-.458-.665-.526-.287-.066-.592-.004-.83.173l-1.6 1.2c-1.377 1.032-3.081 1.6-4.8 1.6s-3.424-.568-4.8-1.601l-1.6-1.2c-.237-.177-.538-.238-.83-.173-.289.068-.532.261-.665.526l-1.356 2.711-.572-1.144c-.65-1.3-.591-2.82.157-4.066zm-1.334 10.947c-.551 0-1-.449-1-1 0-.552.448-1 1-1h1v2zm3 2v-5.764l1.358-2.717.642.481c1.72 1.29 3.851 2 6 2s4.28-.71 6-2l.641-.481 1.359 2.717v5.764c0 4.411-3.589 8-8 8-4.412 0-8-3.589-8-8zm8 10c1.045 0 2.052-.163 3-.461v2.047l-3 3-3-3v-2.047c.948.298 1.955.461 3 .461zm-.323 10.999h.646l1.633 4.08-1.956 8.473-1.956-8.473zm2.219-4.147-1.432 2.147h-.929l-1.432-2.147.333-1.001.856.856c.195.195.451.292.708.292.256 0 .512-.097.707-.292l.856-.856zm-12.897 23.146v-16.999h-2v16.999h-7.999v-19.916c0-2.454 1.757-4.528 4.177-4.932l12.479-2.079 1.199 1.199-.804 2.413c-.098.292-.055.614.116.871l1.708 2.562-1.804 4.51c-.076.189-.092.397-.046.597l3 13c.104.453.509.774.975.774.465 0 .87-.321.974-.774l3-13c.046-.199.03-.407-.046-.597l-1.804-4.51 1.708-2.562c.171-.257.214-.579.116-.871l-.804-2.413 1.199-1.199 10.672 1.778c-.002.051-.015.099-.015.151v3h-6c-1.103 0-2 .896-2 2v2.999.01 16.989zm21 0h-.999v-2h28.001v2z"/></g></svg>