<svg height="512" viewBox="0 0 64 64" width="512" xmlns="http://www.w3.org/2000/svg"><g id="Mail"><path d="m54 29.518 6.67-4.088a3.418 3.418 0 0 0 -.21-.43 3.975 3.975 0 0 0 -1.04-1.2l-5.42-4.11-14.08-10.69-5.5-4.17a4.02 4.02 0 0 0 -4.84 0l-5.5 4.17-14.08 10.69-5.42 4.11a3.975 3.975 0 0 0 -1.04 1.2 3.311 3.311 0 0 0 -.38.91l28.334 17.19z" fill="#004fac"/><path d="m54 19.69v-8.69a2 2 0 0 0 -2-2h-40a2 2 0 0 0 -2 2v19.059l21.494 13.041 22.506-13.582z" fill="#d1e7f8"/><path d="m31.494 43.098-28.334-17.188 6.84 4.149 49.52 30.041z" fill="none"/><g fill="#006df0"><path d="m31.494 43.098 28.026 17.002z"/><path d="m54 29.518 6.67-4.088z"/><path d="m54 29.518-22.506 13.582 28.026 17a3.958 3.958 0 0 0 1.48-3.1v-30.01a3.765 3.765 0 0 0 -.33-1.56z"/></g><path d="m10 30.06-6.84-4.15a3.531 3.531 0 0 0 -.16 1.08v30.01a4 4 0 0 0 4 4h50a4 4 0 0 0 2.52-.9l-49.52-30.041z" fill="#2488ff"/><path d="m32.753 43.862 26.767 16.238z" fill="none"/><path d="m51.213 55.06 8.307 5.04z" fill="none"/><path d="m60.67 25.43-6.67 4.088v19.482a7.975 7.975 0 0 1 -2.787 6.06l8.307 5.04a3.958 3.958 0 0 0 1.48-3.1v-30.01a3.765 3.765 0 0 0 -.33-1.56z" fill="#005ece"/><path d="m46 57h-43a4 4 0 0 0 4 4h50a4 4 0 0 0 2.52-.9l-8.307-5.04a7.963 7.963 0 0 1 -5.213 1.94z" fill="#006df0"/></g></svg>