<svg id="Capa_1" enable-background="new 0 0 512 512" height="512" viewBox="0 0 512 512" width="512" xmlns="http://www.w3.org/2000/svg"><g><g><path d="m308.471 326.664c-5.449-1.362-9.697-5.684-10.986-11.162-11.543-49.775-51.182-89.414-100.986-101.001-5.479-1.274-9.785-5.508-11.162-10.972-2.872-11.543-4.337-24.17-4.337-37.529 0-90.981 74.033-166 165-166s166 75.019 166 166-75.033 165-166 165c-13.33 0-25.957-1.465-37.529-4.336zm-108.867-126.768h.293z" fill="#9ef"/></g><path d="m512 166c0-90.981-75.033-166-166-166v331c90.967 0 166-74.019 166-165z" fill="#80bfff"/><g><path d="m401.547 235.976c-28.301-31.729-82.793-31.729-111.094 0-5.508 6.152-15 6.709-21.182 1.23-6.182-5.522-6.709-15-1.201-21.182 19.804-22.265 48.223-35.024 77.93-35.024s58.124 12.759 77.93 35.024c5.508 6.182 4.98 15.659-1.201 21.182-6.222 5.492-15.666 4.968-21.182-1.23z" fill="#47568c"/></g><path d="m401.547 235.976c5.515 6.198 14.96 6.722 21.182 1.23 6.182-5.522 6.709-15 1.201-21.182-19.805-22.265-48.223-35.024-77.93-35.024v31.179c20.698 0 41.396 7.932 55.547 23.797z" fill="#29376d"/><g id="Attitude_2_"><g><path d="m286 166c-24.814 0-45-20.186-45-45 0-8.291 6.709-15 15-15s15 6.709 15 15c0 8.276 6.738 15 15 15s15-6.724 15-15c0-8.291 6.709-15 15-15s15 6.709 15 15c0 24.814-20.186 45-45 45z" fill="#47568c"/></g><g><g><g><path d="m406 166c-24.814 0-45-20.186-45-45 0-8.291 6.709-15 15-15s15 6.709 15 15c0 8.276 6.738 15 15 15s15-6.724 15-15c0-8.291 6.709-15 15-15s15 6.709 15 15c0 24.814-20.186 45-45 45z" fill="#29376d"/></g></g></g></g><g><path d="m165 512c-90.967 0-165-75.019-165-166 0-13.359 1.465-25.986 4.336-37.529 14.092-60.601 62.52-109.043 123.369-123.179 11.338-2.827 23.965-4.292 37.295-4.292 90.967 0 166 74.019 166 165s-75.033 166-166 166z" fill="#ffe666"/></g><path d="m331 346c0-90.981-75.033-165-166-165v331c90.967 0 166-75.019 166-166z" fill="#fabe2c"/><g><path d="m66.387 381.024c-1.641-4.6-.938-9.697 1.875-13.682 2.813-3.97 7.383-6.343 12.246-6.343h168.984c4.863 0 9.434 2.373 12.246 6.343 2.813 3.984 3.516 9.082 1.875 13.682-14.853 41.851-54.492 69.976-98.613 69.976s-83.76-28.125-98.613-69.976z" fill="#f9b"/></g><path d="m248.492 361h-84.492v90c44.121 0 83.76-28.125 98.613-69.976 1.641-4.6.938-9.697-1.875-13.682-2.812-3.969-7.383-6.342-12.246-6.342z" fill="#f69"/><g><path d="m135 331c-8.291 0-15-6.709-15-15 0-8.276-6.738-15-15-15s-15 6.724-15 15c0 8.291-6.709 15-15 15s-15-6.709-15-15c0-24.814 20.186-45 45-45s45 20.186 45 45c0 8.291-6.709 15-15 15z" fill="#704c55"/></g><g><path d="m255 331c-8.291 0-15-6.709-15-15 0-8.276-6.738-15-15-15s-15 6.724-15 15c0 8.291-6.709 15-15 15s-15-6.709-15-15c0-24.814 20.186-45 45-45s45 20.186 45 45c0 8.291-6.709 15-15 15z" fill="#5b362a"/></g></g></svg>