<svg id="Capa_1" enable-background="new 0 0 512 512" height="512" viewBox="0 0 512 512" width="512" xmlns="http://www.w3.org/2000/svg"><g><path d="m30 330h91v167h-91z" fill="#fed843"/><path d="m271 300h91v197h-91z" fill="#fed843"/><path d="m151 240h90v257h-90z" fill="#ff641a"/><path d="m392 180h90v317h-90z" fill="#ff641a"/><path d="m76 330h45v167h-45z" fill="#fabe2c"/><path d="m196 240h45v257h-45z" fill="#f03800"/><path d="m316 300h46v197h-46z" fill="#fabe2c"/><path d="m437 180h45v317h-45z" fill="#f03800"/><path d="m392 0v30h68.789l-144.789 143.789-60-60-60-60-191.605 190.606 21.21 21.21 170.395-169.394 60 60 60 60 166-165v68.789h30v-120z" fill="#97de3d"/><path d="m482 51.211v68.789h30v-120h-120v30h68.789l-144.789 143.789-60-60v42.422l60 60z" fill="#59c36a"/><path d="m256 482h-256v30h256 256v-30z" fill="#2d5177"/><path d="m256 482h256v30h-256z" fill="#32405d"/></g></svg>