<svg id="Filled_cutting_stroke_ex" height="512" viewBox="0 0 512 512" width="512" xmlns="http://www.w3.org/2000/svg" data-name="Filled cutting stroke ex"><g><g><rect fill="#fdf8ff" height="256" rx="10" width="464" x="24" y="24"/><path d="m34 24h22a0 0 0 0 1 0 0v256a0 0 0 0 1 0 0h-22a10 10 0 0 1 -10-10v-236a10 10 0 0 1 10-10z" fill="#c85aed"/><path d="m456 24h22a10 10 0 0 1 10 10v236a10 10 0 0 1 -10 10h-22a0 0 0 0 1 0 0v-256a0 0 0 0 1 0 0z" fill="#c85aed"/><circle cx="256" cy="152" fill="#fed672" r="88"/><path d="m232 192v-80l64 40z" fill="#fffefa"/><g><path d="m478 16h-444a18.02 18.02 0 0 0 -18 18v236a18.02 18.02 0 0 0 18 18h444a18.02 18.02 0 0 0 18-18v-236a18.02 18.02 0 0 0 -18-18zm-446 254v-236a2.002 2.002 0 0 1 2-2h14v240h-14a2.002 2.002 0 0 1 -2-2zm32-238h384v240h-384zm416 238a2.002 2.002 0 0 1 -2 2h-14v-240h14a2.002 2.002 0 0 1 2 2z"/><path d="m256 56a95.213 95.213 0 0 0 -57.3193 18.9839l9.5615 12.8281a80.0636 80.0636 0 1 1 -10.3013 9.15l-11.6094-11.01a96 96 0 1 0 69.6685-29.952z"/><path d="m232 200a7.9974 7.9974 0 0 0 4.2407-1.2158l64-40a8.0006 8.0006 0 0 0 0-13.5684l-64-40a8 8 0 0 0 -12.2407 6.7842v80a8 8 0 0 0 8 8zm8-73.5659 40.9058 25.5659-40.9058 25.5659z"/><path d="m80 56v16h16v-8h8v-16h-16a8 8 0 0 0 -8 8z"/><path d="m424 48h-16v16h8v8h16v-16a8 8 0 0 0 -8-8z"/><path d="m416 240h-8v16h16a8 8 0 0 0 8-8v-16h-16z"/><path d="m96 232h-16v16a8 8 0 0 0 8 8h16v-16h-8z"/></g></g><g><g><g><path d="m44 352h44a0 0 0 0 1 0 0v104a0 0 0 0 1 0 0h-44a20 20 0 0 1 -20-20v-64a20 20 0 0 1 20-20z" fill="#c85aed"/><path d="m424 352h44a20 20 0 0 1 20 20v64a20 20 0 0 1 -20 20h-44a0 0 0 0 1 0 0v-104a0 0 0 0 1 0 0z" fill="#c85aed"/><path d="m96 456h-48v32h32z" fill="#8d5aed"/><path d="m464 456h-48l16 32h32z" fill="#8d5aed"/><path d="m404 312h-296a20 20 0 0 0 -20 20v124h336v-124a20 20 0 0 0 -20-20z" fill="#dea3f7"/></g><g fill="#8d5aed"><path d="m108 400h128a20 20 0 0 1 20 20v36a0 0 0 0 1 0 0h-168a0 0 0 0 1 0 0v-36a20 20 0 0 1 20-20z"/><path d="m256 400h168a0 0 0 0 1 0 0v36a20 20 0 0 1 -20 20h-128a20 20 0 0 1 -20-20v-36a0 0 0 0 1 0 0z" transform="matrix(-1 0 0 -1 680 856)"/></g></g><rect fill="#fed672" height="48" rx="10" width="80" x="136" y="352"/><rect fill="#fed672" height="48" rx="10" width="80" x="296" y="352"/><path d="m496 400v-28a28.0314 28.0314 0 0 0 -28-28h-36v-12a28.0314 28.0314 0 0 0 -28-28h-260.0923v16h260.0923a12.0137 12.0137 0 0 1 12 12v62.7042a27.8338 27.8338 0 0 0 -12-2.7042h-20.1107a18.1 18.1 0 0 0 .1107-2v-28a18.02 18.02 0 0 0 -18-18h-60a18.02 18.02 0 0 0 -18 18v28a18.1 18.1 0 0 0 .1107 2h-12.1107a27.9177 27.9177 0 0 0 -20 8.4229 27.9177 27.9177 0 0 0 -20-8.4229h-12.1107a18.1 18.1 0 0 0 .1107-2v-28a18.02 18.02 0 0 0 -18-18h-60a18.02 18.02 0 0 0 -18 18v28a18.1 18.1 0 0 0 .1107 2h-20.1107a27.8338 27.8338 0 0 0 -12 2.7042v-62.7042a12.0137 12.0137 0 0 1 12-12h20v-16h-20a28.0314 28.0314 0 0 0 -28 28v12h-36a28.0314 28.0314 0 0 0 -28 28v64a28.0429 28.0429 0 0 0 24 27.7147v24.2853a8 8 0 0 0 8 8h32a7.9992 7.9992 0 0 0 7.1553-4.4224l13.7888-27.5776h310.1118l13.7888 27.5776a7.9992 7.9992 0 0 0 7.1553 4.4224h32a8 8 0 0 0 8-8v-24.2853a28.0429 28.0429 0 0 0 24-27.7147v-20h-16v20a12.0137 12.0137 0 0 1 -12 12h-36v-88h36a12.0137 12.0137 0 0 1 12 12v28zm-192-10v-28a2.002 2.002 0 0 1 2-2h60a2.002 2.002 0 0 1 2 2v28a2.002 2.002 0 0 1 -2 2h-60a2.002 2.002 0 0 1 -2-2zm-160 0v-28a2.002 2.002 0 0 1 2-2h60a2.002 2.002 0 0 1 2 2v28a2.002 2.002 0 0 1 -2 2h-60a2.002 2.002 0 0 1 -2-2zm-36 18h128a12.0137 12.0137 0 0 1 12 12v28h-152v-28a12.0137 12.0137 0 0 1 12-12zm-76 28v-64a12.0137 12.0137 0 0 1 12-12h36v88h-36a12.0137 12.0137 0 0 1 -12-12zm43.0557 44h-19.0557v-16h27.0557zm380.9443-16v16h-19.0557l-8-16zm-192-16v-28a12.0137 12.0137 0 0 1 12-12h128a12.0137 12.0137 0 0 1 12 12v28z"/></g></g></svg>