<svg height="512pt" viewBox="0 -71 512 512" width="512pt" xmlns="http://www.w3.org/2000/svg"><path d="m501.425781 64.164062c-6.917969-26.042968-27.308593-46.546874-53.207031-53.511718-38.398438-10.351563-176.585938-10.652344-192.21875-10.652344l-60 184.75 60 184.75c15.632812 0 153.820312-.300781 192.210938-10.648438 25.90625-6.96875 46.296874-27.472656 53.210937-53.503906 10.457031-39.269531 10.578125-117.296875 10.578125-120.597656s-.121094-81.328125-10.574219-120.585938zm0 0" fill="#d63030"/><path d="m63.789062 10.648438c-25.90625 6.96875-46.296874 27.472656-53.210937 53.503906-10.457031 39.269531-10.578125 117.296875-10.578125 120.597656s.121094 81.328125 10.574219 120.585938c6.917969 26.042968 27.308593 46.546874 53.207031 53.511718 38.398438 10.351563 176.585938 10.652344 192.21875 10.652344v-369.5c-15.632812 0-153.820312.300781-192.210938 10.648438zm0 0" fill="#f44545"/><path d="m256 123.824219-40 60.925781 40 60.929688 106.992188-60.925782zm0 0" fill="#ffe6f7"/><path d="m191.683594 87.195312v195.109376l64.316406-36.625v-121.855469zm0 0" fill="#fff"/></svg>