<svg id="Avatar" height="512" viewBox="0 0 64 64" width="512" xmlns="http://www.w3.org/2000/svg"><path d="m18.441 41.791-5.868 4.109a1 1 0 0 1 -1.573-.821v-27.079a6 6 0 0 1 6-6h4v24.876a6 6 0 0 1 -2.559 4.915z" fill="#3e3d42"/><circle cx="21" cy="10" fill="#2d2d30" r="7"/><path d="m45 29h-30v-8a16 16 0 0 1 16-16h2a16 16 0 0 1 16 16v4a4 4 0 0 1 -4 4z" fill="#57565c"/><path d="m20 48h24a8 8 0 0 1 8 8v5a0 0 0 0 1 0 0h-40a0 0 0 0 1 0 0v-5a8 8 0 0 1 8-8z" fill="#dd636e"/><g fill="#ffcbbe"><path d="m32 53a5.658 5.658 0 0 1 -5.648-5.99l.648-11.01h10l.648 11.01a5.658 5.658 0 0 1 -5.648 5.99z"/><path d="m17 24h2a0 0 0 0 1 0 0v7a0 0 0 0 1 0 0h-2a2 2 0 0 1 -2-2v-3a2 2 0 0 1 2-2z"/><path d="m43 31h4a2 2 0 0 0 2-2v-3a2 2 0 0 0 -2-2h-4z"/></g><path d="m32 44a13 13 0 0 1 -13-13v-7l10-12v9h13l3 3v7a13 13 0 0 1 -13 13z" fill="#ffddce"/><path d="m35.59 30.38 9.09 3.5a13 13 0 0 1 -25.36 0l9.09-3.5a9.988 9.988 0 0 1 7.18 0z" fill="#b4e6ee"/><path d="m44 47h-5.35v-.05l-.21-3.53a14.014 14.014 0 0 0 7.51-11.42h1.05a3.009 3.009 0 0 0 3-3v-3a2.984 2.984 0 0 0 -.04-.42 4.344 4.344 0 0 0 .04-.58v-4a17.024 17.024 0 0 0 -17-17h-2a16.9 16.9 0 0 0 -4.17.54 7.92 7.92 0 0 0 -5.83-2.54 7.984 7.984 0 0 0 -7.72 10.08 7.028 7.028 0 0 0 -3.28 5.92v27.08a1.981 1.981 0 0 0 1.07 1.77 2.062 2.062 0 0 0 .93.23 1.975 1.975 0 0 0 1.14-.36l5.87-4.11a6.991 6.991 0 0 0 2.26-2.63 14.2 14.2 0 0 0 4.29 3.44l-.21 3.53v.05h-5.35a9.014 9.014 0 0 0 -9 9v5a1 1 0 0 0 1 1h40a1 1 0 0 0 1-1v-5a9.014 9.014 0 0 0 -9-9zm4-18a1 1 0 0 1 -1 1h-1v-4a1 1 0 0 0 -.14-.51l-.29-.49h1.43a1 1 0 0 1 1 1zm-17-23h2a15.018 15.018 0 0 1 15 15v2.18a3 3 0 0 0 -1-.18h-2.63l-1.51-2.51a.99.99 0 0 0 -.86-.49h-12v-8a1 1 0 0 0 -1.79-.61l-8.93 11.61h-2.28a3 3 0 0 0 -1 .18v-2.18a15.018 15.018 0 0 1 15-15zm-13 19v5h-1a1 1 0 0 1 -1-1v-3a1 1 0 0 1 1-1zm3-21a5.939 5.939 0 0 1 3.65 1.24 17.093 17.093 0 0 0 -8.73 7.94 5.874 5.874 0 0 1 -.92-3.18 6 6 0 0 1 6-6zm-3.13 36.97-5.87 4.11v-27.08a5.011 5.011 0 0 1 2.06-4.03 7.608 7.608 0 0 0 .95 1.32 16.887 16.887 0 0 0 -1.01 5.71v8a3.009 3.009 0 0 0 3 3h1.05a13.89 13.89 0 0 0 1.81 5.95 5.006 5.006 0 0 1 -1.99 3.02zm2.13-9.97v-5.66l8-10.4v6.06a1 1 0 0 0 1 1h12.43l2.57 4.28v4.72a12.321 12.321 0 0 1 -.1 1.5l-7.95-3.05a10.981 10.981 0 0 0 -7.9 0l-7.95 3.05a12.321 12.321 0 0 1 -.1-1.5zm.52 3.49 8.25-3.18a8.994 8.994 0 0 1 6.46 0l8.25 3.18a12 12 0 0 1 -22.96 0zm16.13 12.58a4.474 4.474 0 0 1 -.02.82 4.662 4.662 0 0 1 -9.26-.01 4.343 4.343 0 0 1 -.02-.81l.17-2.82a13.755 13.755 0 0 0 8.96 0zm14.35 12.93h-38v-4a7.008 7.008 0 0 1 7-7h5.56a6.647 6.647 0 0 0 12.88 0h5.56a7.008 7.008 0 0 1 7 7z"/><path d="m27 24a1 1 0 0 0 -1 1v2a1 1 0 0 0 2 0v-2a1 1 0 0 0 -1-1z"/><path d="m37 28a1 1 0 0 0 1-1v-2a1 1 0 0 0 -2 0v2a1 1 0 0 0 1 1z"/></svg>