<svg id="Avatar" height="512" viewBox="0 0 64 64" width="512" xmlns="http://www.w3.org/2000/svg"><path d="m20 45h24a8 8 0 0 1 8 8v8a0 0 0 0 1 0 0h-40a0 0 0 0 1 0 0v-8a8 8 0 0 1 8-8z" fill="#4a80aa"/><path d="m32 50a5.658 5.658 0 0 1 -5.648-5.99l.648-11.01h10l.648 11.01a5.658 5.658 0 0 1 -5.648 5.99z" fill="#ffcbbe"/><rect fill="#ffddce" height="36" rx="13" width="26" x="19" y="6"/><path d="m17 19h2a0 0 0 0 1 0 0v7a0 0 0 0 1 0 0h-2a2 2 0 0 1 -2-2v-3a2 2 0 0 1 2-2z" fill="#ffcbbe"/><path d="m47 19h2a0 0 0 0 1 0 0v7a0 0 0 0 1 0 0h-2a2 2 0 0 1 -2-2v-3a2 2 0 0 1 2-2z" fill="#ffcbbe" transform="matrix(-1 0 0 -1 94 45)"/><path d="m31 14h9l2 6h3v-3c0-3.59-1.46-8.84-3.81-11.19-1.436-1.436-3.209-.54-5.19-1.181-1.26-.408-2.6-1.629-4-1.629-2.164 0-4.2 1.529-6 2.464-2.022 1.054-5.776-1.376-7 .536-1.294 2.021 0 8.423 0 11v3h3l2-6z" fill="#3e3d42"/><path d="m35.59 28.38 8.85 3.4a13 13 0 0 1 -24.88 0l8.85-3.4a9.988 9.988 0 0 1 7.18 0z" fill="#b4e6ee"/><path d="m44 44h-5.35v-.05l-.15-2.56a14.023 14.023 0 0 0 7.5-12.39v-2h1a3.009 3.009 0 0 0 3-3v-3a3.009 3.009 0 0 0 -3-3h-1v-1c0-3.83-1.53-9.33-4.1-11.9a4.712 4.712 0 0 0 -3.63-1.19 6.423 6.423 0 0 1 -1.96-.23 8.451 8.451 0 0 1 -1.3-.63 6.354 6.354 0 0 0 -3.01-1.05 10.892 10.892 0 0 0 -5.28 1.92c-.4.23-.8.46-1.18.66a5.2 5.2 0 0 1 -2.75-.08c-1.6-.29-3.6-.66-4.63.96-1.1 1.72-.73 5.35-.39 8.56.12 1.17.23 2.27.23 2.98v1h-1a3.009 3.009 0 0 0 -3 3v3a3.009 3.009 0 0 0 3 3h1v2a14.012 14.012 0 0 0 7.5 12.39l-.15 2.56v.05h-5.35a9.014 9.014 0 0 0 -9 9v8a1 1 0 0 0 1 1h40a1 1 0 0 0 1-1v-8a9.014 9.014 0 0 0 -9-9zm2-24h1a1 1 0 0 1 1 1v3a1 1 0 0 1 -1 1h-1zm-28 5h-1a1 1 0 0 1 -1-1v-3a1 1 0 0 1 1-1h1zm1.84-18.46c.29-.45 1.26-.32 2.59-.07s2.82.51 4.03-.12c.41-.21.83-.45 1.26-.7a9.359 9.359 0 0 1 4.28-1.65 4.88 4.88 0 0 1 2.04.8 9.549 9.549 0 0 0 1.65.78 8.608 8.608 0 0 0 2.54.33c1.1.02 1.7.05 2.25.61 2.11 2.1 3.52 7.12 3.52 10.48v2h-1.28l-1.77-5.32a1.014 1.014 0 0 0 -.95-.68h-16a1.014 1.014 0 0 0 -.95.68l-1.77 5.32h-1.28v-2c0-.81-.11-1.91-.25-3.19-.25-2.44-.63-6.14.09-7.27zm.16 22.46v-8h2a1.014 1.014 0 0 0 .95-.68l1.77-5.32h14.56l1.77 5.32a1.014 1.014 0 0 0 .95.68h2v8a12.321 12.321 0 0 1 -.1 1.5l-7.95-3.05a10.981 10.981 0 0 0 -7.9 0l-7.95 3.05a12.321 12.321 0 0 1 -.1-1.5zm.52 3.49 8.25-3.18a8.994 8.994 0 0 1 6.46 0l8.25 3.18a12 12 0 0 1 -22.96 0zm16.13 11.58a4.658 4.658 0 1 1 -9.3 0l.11-1.84a13.769 13.769 0 0 0 9.08 0zm14.35 15.93h-38v-7a7.008 7.008 0 0 1 7-7h5.55a6.662 6.662 0 0 0 12.9 0h5.55a7.008 7.008 0 0 1 7 7z"/><path d="m27 21a1 1 0 0 0 -1 1v2a1 1 0 0 0 2 0v-2a1 1 0 0 0 -1-1z"/><path d="m37 25a1 1 0 0 0 1-1v-2a1 1 0 0 0 -2 0v2a1 1 0 0 0 1 1z"/></svg>