<svg id="Line" height="512" viewBox="0 0 64 64" width="512" xmlns="http://www.w3.org/2000/svg"><path d="m20 45h24a8 8 0 0 1 8 8v8a0 0 0 0 1 0 0h-40a0 0 0 0 1 0 0v-8a8 8 0 0 1 8-8z" fill="#365e7d"/><path d="m38 48-6 5-6-5 1-15h10z" fill="#ffcbbe"/><path d="m38 4a8.968 8.968 0 0 0 -2.814.455 13.977 13.977 0 0 0 -20.186 12.545h14.947a9 9 0 1 0 8.053-13z" fill="#3e3d42"/><path d="m17 19h2a0 0 0 0 1 0 0v7a0 0 0 0 1 0 0h-2a2 2 0 0 1 -2-2v-3a2 2 0 0 1 2-2z" fill="#ffcbbe"/><path d="m47 19h2a0 0 0 0 1 0 0v7a0 0 0 0 1 0 0h-2a2 2 0 0 1 -2-2v-3a2 2 0 0 1 2-2z" fill="#ffcbbe" transform="matrix(-1 0 0 -1 94 45)"/><path d="m32 41a13 13 0 0 1 -13-13v-9a6 6 0 0 1 2.4-4.8 6 6 0 0 1 3.6-1.2h14a6 6 0 0 1 3.6 1.2 6 6 0 0 1 2.4 4.8v9a13 13 0 0 1 -13 13z" fill="#ffddce"/><path d="" fill="none"/><path d="m28.08 49.73-4.08 3.27-2.37-7.9a2 2 0 0 1 1.52-2.53l3.24-.48 2.61 6.91z" fill="#e9e9ea"/><path d="m35 49 2.61-6.91 3.24.48a2 2 0 0 1 1.52 2.53l-2.37 7.9-4.08-3.27z" fill="#e9e9ea"/><path d="m44 44h-.61a2.846 2.846 0 0 0 -.36-1.01 3.052 3.052 0 0 0 -2.03-1.41l-2.46-.36-.05-.83a13.99 13.99 0 0 0 7.51-12.39v-1h1a3.009 3.009 0 0 0 3-3v-3a3.009 3.009 0 0 0 -3-3h-.35a9.986 9.986 0 0 0 -8.65-15 9.584 9.584 0 0 0 -2.73.39 14.779 14.779 0 0 0 -6.27-1.39 15.018 15.018 0 0 0 -15 15 1 1 0 0 0 1 1h2a3.009 3.009 0 0 0 -3 3v3a3.009 3.009 0 0 0 3 3h1v1a13.99 13.99 0 0 0 7.51 12.39l-.05.83-2.51.37a3.024 3.024 0 0 0 -1.98 1.4 2.846 2.846 0 0 0 -.36 1.01h-.61a9.014 9.014 0 0 0 -9 9v8a1 1 0 0 0 1 1h40a1 1 0 0 0 1-1v-8a9.014 9.014 0 0 0 -9-9zm-3.35-.45a.972.972 0 0 1 .66.47.955.955 0 0 1 .1.79l-1.94 6.48-3.28-2.62 2.07-5.47zm6.35-23.55a1 1 0 0 1 1 1v3a1 1 0 0 1 -1 1h-1v-5zm-29 5h-1a1 1 0 0 1 -1-1v-3a1 1 0 0 1 1-1h1zm-1.96-9a13.017 13.017 0 0 1 12.96-12 12.828 12.828 0 0 1 5.75 1.36 1.049 1.049 0 0 0 .76.05 7.693 7.693 0 0 1 2.49-.41 8.011 8.011 0 0 1 8 8 7.868 7.868 0 0 1 -.64 3.11 6.945 6.945 0 0 0 -2.16-2.71 7.042 7.042 0 0 0 -4.2-1.4h-14a6.952 6.952 0 0 0 -6.31 4zm3.96 12v-9a5 5 0 0 1 5-5h14a5 5 0 0 1 5 5v9a12 12 0 0 1 -24 0zm2.69 16.02a.948.948 0 0 1 .61-.46l2.44-.36 2.07 5.47-.35.28-2.93 2.34-1.94-6.48a.955.955 0 0 1 .1-.79zm8.31 15.98h-18v-7a7.008 7.008 0 0 1 7-7h.86l2.18 7.29a.992.992 0 0 0 .66.66.789.789 0 0 0 .3.05 1 1 0 0 0 .62-.22l3.45-2.76 2.93 2.45zm-1.34-10.26a.994.994 0 0 0 .28-1.09l-2.53-6.69.05-.73a13.769 13.769 0 0 0 9.08 0l.05.73-2.53 6.69a.994.994 0 0 0 .28 1.09l-2.34 1.96zm21.34 10.26h-18v-6.53l2.93-2.45 3.45 2.76a1 1 0 0 0 .62.22.789.789 0 0 0 .3-.05.992.992 0 0 0 .66-.66l2.18-7.29h.86a7.008 7.008 0 0 1 7 7z"/><path d="m27 21a1 1 0 0 0 -1 1v2a1 1 0 0 0 2 0v-2a1 1 0 0 0 -1-1z"/><path d="m37 25a1 1 0 0 0 1-1v-2a1 1 0 0 0 -2 0v2a1 1 0 0 0 1 1z"/></svg>