<svg id="Avatar" height="512" viewBox="0 0 64 64" width="512" xmlns="http://www.w3.org/2000/svg"><path d="m50 50h-36l2-27v-4c0-11.5 7.16-16 16-16a16 16 0 0 1 16 16v4z" fill="#3e3d42"/><path d="m20 45h24a8 8 0 0 1 8 8v8a0 0 0 0 1 0 0h-40a0 0 0 0 1 0 0v-8a8 8 0 0 1 8-8z" fill="#ec455a"/><path d="m38 45-6 11-6-11 1-12h10z" fill="#ffcbbe"/><path d="m45 23v5a13 13 0 0 1 -26 0v-5l1.89-2.79a4.02 4.02 0 0 1 3.58-2.21h6.53a6 6 0 0 0 6-6 5 5 0 0 0 4 4.9 2.088 2.088 0 0 1 1.49 1.08z" fill="#ffddce"/><path d="m35.59 28.38 8.85 3.4a13 13 0 0 1 -24.88 0l8.85-3.4a9.988 9.988 0 0 1 7.18 0z" fill="#b4e6ee"/><path d="m50.79 47.11-1.79-24.11v-4a16.969 16.969 0 0 0 -17-17c-10.8 0-17 6.2-17 17v3.93l-1.79 24.18a8.972 8.972 0 0 0 -2.21 5.89v8a1 1 0 0 0 1 1h40a1 1 0 0 0 1-1v-8a8.972 8.972 0 0 0 -2.21-5.89zm-33.79-24.11v-4c0-13.05 9.4-15 15-15a14.988 14.988 0 0 1 15 15v4.07l1.65 22.24a8.9 8.9 0 0 0 -4.65-1.31h-5.08l-.31-3.67a13.986 13.986 0 0 0 7.39-12.33v-5a1 1 0 0 0 -.11-.45l-2.51-5.02a3.1 3.1 0 0 0 -2.18-1.61 4.028 4.028 0 0 1 -2.29-1.38 3.972 3.972 0 0 1 -.91-2.54 1 1 0 0 0 -2 0 5 5 0 0 1 -5 5h-6.53a5.046 5.046 0 0 0 -4.44 2.7l-1.86 2.74a1 1 0 0 0 -.17.56v5a13.936 13.936 0 0 0 4.1 9.9 14.119 14.119 0 0 0 3.29 2.44l-.31 3.66h-5.08a8.9 8.9 0 0 0 -4.65 1.31zm15 17a12.017 12.017 0 0 1 -11.17-7.63l7.94-3.06a8.994 8.994 0 0 1 6.46 0l7.94 3.06a12.02 12.02 0 0 1 -11.17 7.63zm4.98 4.78-4.98 9.13-4.98-9.13.3-3.6a13.765 13.765 0 0 0 9.36 0zm-16.73-14.33a12.493 12.493 0 0 1 -.25-2.45v-4.69l1.72-2.54a1.091 1.091 0 0 0 .06-.11 3.044 3.044 0 0 1 2.69-1.66h6.53a7 7 0 0 0 6.09-3.55c.09.13.18.25.28.37a6.041 6.041 0 0 0 3.43 2.06 1.117 1.117 0 0 1 .8.55l2.4 4.81v4.76a12.338 12.338 0 0 1 -.25 2.45l-7.8-3a10.981 10.981 0 0 0 -7.9 0zm30.75 29.55h-38v-7a7.008 7.008 0 0 1 7-7h5.41l5.71 10.48a1 1 0 0 0 1.76 0l5.71-10.48h5.41a7.008 7.008 0 0 1 7 7z"/><path d="m27 21a1 1 0 0 0 -1 1v2a1 1 0 0 0 2 0v-2a1 1 0 0 0 -1-1z"/><path d="m37 25a1 1 0 0 0 1-1v-2a1 1 0 0 0 -2 0v2a1 1 0 0 0 1 1z"/></svg>